# xmcd
#
# Track frame offsets:
#	150
#	26942
#	36406
#	58951
#	86694
#	109238
#	128228
#	145768
#	167350
#	186098
#	189208
#	210417
#	229483
#	254593
#
# Disc length: 3653 seconds
#
# Revision: 1
# Processed by: cddbd v1.5.1PL0 Copyright (c) Steve Scherf et al.
# Submitted via: audiograbber 1.81.03
#
DISCID=cc0e430e
DTITLE=Family Style - Live In Nottingham
DYEAR=2005
DGENRE=Blues
TTITLE0=Lookin' For A Woman
TTITLE1=She's Real
TTITLE2=Looking For Somebody
TTITLE3=Diving Duck Blues
TTITLE4=Pocket Full Of Nothin'
TTITLE5=Get Rid Of You
TTITLE6=Walking Blues
TTITLE7=Body Painter
TTITLE8=Cannonball
TTITLE9=Thank You All
TTITLE10=Jack Daniel
TTITLE11=Keep My Business
TTITLE12=I Walk All Day
TTITLE13=Easy
EXTD=Live At The Running Horse Nottinghm
EXTT0=
EXTT1=
EXTT2=
EXTT3=
EXTT4=
EXTT5=
EXTT6=
EXTT7=
EXTT8=
EXTT9=
EXTT10=
EXTT11=
EXTT12=
EXTT13=
PLAYORDER=
